<svg color="#aaa8a5" aria-hidden="true" focusable="false" data-prefix="fa" data-icon="square" role="img" xmlns="http://www.w3.org/2000/svg" viewBox="0 0 448 512" class="svg-inline--fa fa-square fa-w-14 fa-2x"><g class="fa-group"><path fill="currentColor" d="M400 32H48A48 48 0 0 0 0 80v352a48 48 0 0 0 48 48h352a48 48 0 0 0 48-48V80a48 48 0 0 0-48-48zm-16 368a16 16 0 0 1-16 16H80a16 16 0 0 1-16-16V112a16 16 0 0 1 16-16h288a16 16 0 0 1 16 16z" class="fa-secondary"></path><path fill="currentColor" d="M64 400V112a16 16 0 0 1 16-16h288a16 16 0 0 1 16 16v288a16 16 0 0 1-16 16H80a16 16 0 0 1-16-16z" class="fa-primary"></path></g></svg>